# xmcd CD database file
#
# Track frame offsets:
#	150
#	31526
#	59209
#	80965
#	100991
#	127183
#	154164
#	187501
#	204904
#	248437
#	272203
#	287492
#
# Disc length: 4293 seconds
#
# Revision: 0
# Processed by: cddbd v1.5.2PL0 Copyright (c) Steve Scherf et al.
# Submitted via: CDex 1.70beta2
#
DISCID=a310c30c
DTITLE=STEVE HOWE TRIO - Travelling
DYEAR=2009
DGENRE=Jazz
TTITLE0=Blue Bash
TTITLE1=Dream River
TTITLE2=Travelin'
TTITLE3=The Haunted Melody
TTITLE4=Tune Up
TTITLE5=Siberian Khatru
TTITLE6=Mood For A Day
TTITLE7=He Ain't Heavy, He's My Brother
TTITLE8=Momenta
TTITLE9=Kenny's Sound
TTITLE10=Laughing With Larry
TTITLE11=Close To The Edge
EXTD=YEAR: 2009
EXTT0=
EXTT1=
EXTT2=
EXTT3=
EXTT4=
EXTT5=
EXTT6=
EXTT7=
EXTT8=
EXTT9=
EXTT10=
EXTT11=
PLAYORDER=
